:FULLY-SPECIFIED
:FORCE-ALL-JOINTS-BE-3DOF
:DEGREES
307
root 10.0008 16.6666 6.20505 7.38453 6.62361 4.97259
lfemur 12.8268 3.66972 -28.3797
ltibia 2.25265 0 0
lfoot -16.2169 0.0367197 0
ltoes -1.96046 0 0
rfemur -42.4105 5.09633 9.03836
rtibia 27.4202 0 0
rfoot -23.2869 -11.2657 0
rtoes -19.7142 0 0
lowerback -7.89207 -4.69245 -6.68144
upperback -0.660841 -5.73702 1.80879
thorax 4.56954 -2.99149 4.9294
lowerneck -19.6249 -4.70909 -12.5621
upperneck 22.0287 -5.94257 12.3766
head 11.16 -2.31218 5.75895
lclavicle 1.30745e-14 8.57498e-15 0
lhumerus -12.5496 -35.5446 90.7586
lradius 37.3561 0 0
lwrist 13.7475 0 0
lhand -10.4867 -22.2996 0
lfingers 7.12502 0 0
lthumb 15.5118 7.04886 0
rclavicle 1.30745e-14 8.57498e-15 0
rhumerus -49.6106 5.96433 -82.969
rradius 34.5076 0 0
rwrist -19.6731 0 0
rhand -29.4674 -26.1018 0
rfingers 7.12502 0 0
rthumb -2.80308 -56.0578 0
308
root 9.9914 16.645 6.36564 7.47779 6.87544 5.07944
lfemur 13.7106 3.64212 -28.2518
ltibia 1.56067 0 0
lfoot -16.012 -0.219798 0
ltoes -2.07525 0 0
rfemur -42.558 5.24781 8.73337
rtibia 27.1399 0 0
rfoot -23.3316 -11.4107 0
rtoes -19.5497 0 0
lowerback -7.97436 -4.7311 -6.81747
upperback -0.716752 -5.7709 1.78384
thorax 4.57343 -3.00905 4.96942
lowerneck -19.4163 -4.74736 -12.6476
upperneck 21.9172 -6.00841 12.4649
head 11.0937 -2.34509 5.79226
lclavicle 1.14452e-14 8.36282e-15 0
lhumerus -12.9924 -36.2556 91.2016
lradius 38.0328 0 0
lwrist 13.7607 0 0
lhand -9.96108 -22.3466 0
lfingers 7.12502 0 0
lthumb 16.0181 6.96493 0
rclavicle 1.14452e-14 8.36282e-15 0
rhumerus -49.72 5.79007 -82.9085
rradius 34.0405 0 0
rwrist -19.3592 0 0
rhand -29.2776 -25.6351 0
rfingers 7.12502 0 0
rthumb -2.61974 -55.5938 0
309
root 9.98133 16.6241 6.52749 7.56489 7.12056 5.17248
lfemur 14.5516 3.6232 -28.1005
ltibia 0.951137 0 0
lfoot -15.771 -0.469635 0
ltoes -2.20174 0 0
rfemur -42.6834 5.38404 8.46518
rtibia 26.9119 0 0
rfoot -23.3501 -11.5296 0
rtoes -19.3814 0 0
lowerback -8.051 -4.76698 -6.94101
upperback -0.771991 -5.80252 1.76213
thorax 4.57373 -3.02527 5.00652
lowerneck -19.2165 -4.78444 -12.7296
upperneck 21.8079 -6.0723 12.5512
head 11.0296 -2.37678 5.82458
lclavicle 9.85504e-15 8.09863e-15 0
lhumerus -13.4513 -36.9159 91.6468
lradius 38.6662 0 0
lwrist 13.751 0 0
lhand -9.45552 -22.3986 0
lfingers 7.12502 0 0
lthumb 16.5052 6.87749 0
rclavicle 9.85504e-15 8.09863e-15 0
rhumerus -49.8199 5.6212 -82.8475
rradius 33.5851 0 0
rwrist -19.047 0 0
rhand -29.0914 -25.1839 0
rfingers 7.12502 0 0
rthumb -2.43992 -55.1451 0
310
root 9.9706 16.6041 6.69059 7.64434 7.35866 5.2494
lfemur 15.3435 3.61377 -27.9232
ltibia 0.436054 0 0
lfoot -15.49 -0.711285 0
ltoes -2.34008 0 0
rfemur -42.787 5.50308 8.24007
rtibia 26.7363 0 0
rfoot -23.3393 -11.6168 0
rtoes -19.2102 0 0
lowerback -8.12106 -4.80025 -7.04989
upperback -0.825996 -5.83239 1.74435
thorax 4.57037 -3.04039 5.04027
lowerneck -19.0285 -4.82007 -12.8069
upperneck 21.7027 -6.13373 12.6345
head 10.9686 -2.40695 5.85549
lclavicle 8.32598e-15 7.78216e-15 0
lhumerus -13.9221 -37.5167 92.0914
lradius 39.2468 0 0
lwrist 13.7187 0 0
lhand -8.97778 -22.4554 0
lfingers 7.12502 0 0
lthumb 16.9654 6.78736 0
rclavicle 8.32598e-15 7.78216e-15 0
rhumerus -49.9089 5.45952 -82.7863
rradius 33.1454 0 0
rwrist -18.7388 0 0
rhand -28.9109 -24.7559 0
rfingers 7.12502 0 0
rthumb -2.26562 -54.7196 0
311
root 9.9592 16.5852 6.85495 7.71464 7.58941 5.30788
lfemur 16.08 3.61462 -27.7175
ltibia 0.0273991 0 0
lfoot -15.1648 -0.943242 0
ltoes -2.49041 0 0
rfemur -42.8687 5.60297 8.06434
rtibia 26.6137 0 0
rfoot -23.2963 -11.6665 0
rtoes -19.0375 0 0
lowerback -8.18361 -4.83107 -7.14198
upperback -0.878205 -5.86099 1.7312
thorax 4.56328 -3.05463 5.07024
lowerneck -18.8549 -4.85395 -12.8784
upperneck 21.6032 -6.19217 12.7136
head 10.9117 -2.43532 5.88453
lclavicle 6.87999e-15 7.41314e-15 0
lhumerus -14.4005 -38.0494 92.5325
lradius 39.7651 0 0
lwrist 13.6638 0 0
lhand -8.53564 -22.5167 0
lfingers 7.12502 0 0
lthumb 17.3914 6.69536 0
rclavicle 6.87999e-15 7.41314e-15 0
rhumerus -49.9857 5.30682 -82.7255
rradius 32.7252 0 0
rwrist -18.4364 0 0
rhand -28.7382 -24.3592 0
rfingers 7.12502 0 0
rthumb -2.09886 -54.3253 0
312
root 9.94714 16.5677 7.02057 7.77431 7.81251 5.34561
lfemur 16.7546 3.62653 -27.4808
ltibia -0.262842 0 0
lfoot -14.7913 -1.164 0
ltoes -2.65286 0 0
rfemur -42.9287 5.68175 7.94428
rtibia 26.5442 0 0
rfoot -23.2181 -11.6729 0
rtoes -18.8642 0 0
lowerback -8.23774 -4.85961 -7.21513
upperback -0.928058 -5.88883 1.72336
thorax 4.55239 -3.06824 5.09598
lowerneck -18.6985 -4.88579 -12.9431
upperneck 21.5112 -6.24712 12.7875
head 10.8601 -2.46161 5.91128
lclavicle 5.53902e-15 6.99131e-15 0
lhumerus -14.8821 -38.5053 92.9672
lradius 40.2116 0 0
lwrist 13.5867 0 0
lhand -8.13688 -22.5821 0
lfingers 7.12502 0 0
lthumb 17.7756 6.60232 0
rclavicle 5.53902e-15 6.99131e-15 0
rhumerus -50.0487 5.16489 -82.6653
rradius 32.3287 0 0
rwrist -18.1417 0 0
rhand -28.5755 -24.0018 0
rfingers 7.12502 0 0
rthumb -1.94166 -53.97 0
313
root 9.93441 16.5519 7.18746 7.82186 8.02763 5.36027
lfemur 17.3611 3.65029 -27.2106
ltibia -0.422687 0 0
lfoot -14.3655 -1.37205 0
ltoes -2.82758 0 0
rfemur -42.967 5.73748 7.88618
rtibia 26.5283 0 0
rfoot -23.1017 -11.6302 0
rtoes -18.6915 0 0
lowerback -8.28251 -4.88604 -7.2672
upperback -0.974992 -5.91642 1.72151
thorax 4.53764 -3.08144 5.11707
lowerneck -18.5622 -4.91532 -12.9997
upperneck 21.4283 -6.29805 12.8551
head 10.8146 -2.48552 5.93528
lclavicle 4.32505e-15 6.51643e-15 0
lhumerus -15.3626 -38.8758 93.3929
lradius 40.5767 0 0
lwrist 13.4874 0 0
lhand -7.78929 -22.6516 0
lfingers 7.12502 0 0
lthumb 18.1105 6.50904 0
rclavicle 4.32505e-15 6.51643e-15 0
rhumerus -50.0967 5.03552 -82.6063
rradius 31.9596 0 0
rwrist -17.8569 0 0
rhand -28.4247 -23.6915 0
rfingers 7.12502 0 0
rthumb -1.79603 -53.6618 0
314
root 9.92101 16.5379 7.35561 7.85579 8.23446 5.34954
lfemur 17.8931 3.68668 -26.9043
ltibia -0.440151 0 0
lfoot -13.8832 -1.56588 0
ltoes -3.01472 0 0
rfemur -42.9837 5.76821 7.89634
rtibia 26.5662 0 0
rfoot -22.944 -11.5326 0
rtoes -18.5206 0 0
lowerback -8.31701 -4.91053 -7.29603
upperback -1.01845 -5.94424 1.72636
thorax 4.51895 -3.09448 5.13308
lowerneck -18.4487 -4.94224 -13.0472
upperneck 21.3565 -6.34445 12.9155
head 10.7765 -2.50678 5.9561
lclavicle 3.26005e-15 5.98822e-15 0
lhumerus -15.8378 -39.1523 93.8066
lradius 40.8509 0 0
lwrist 13.3662 0 0
lhand -7.50064 -22.7247 0
lfingers 7.12502 0 0
lthumb 18.3886 6.41635 0
rclavicle 3.26005e-15 5.98822e-15 0
rhumerus -50.1282 4.92052 -82.5486
rradius 31.6221 0 0
rwrist -17.5839 0 0
rhand -28.2879 -23.4363 0
rfingers 7.12502 0 0
rthumb -1.66398 -53.4084 0
315
root 9.90692 16.5261 7.52503 7.87462 8.43267 5.31112
lfemur 18.3441 3.73651 -26.5594
ltibia -0.30325 0 0
lfoot -13.3404 -1.744 0
ltoes -3.2144 0 0
rfemur -42.9789 5.77197 7.98106
rtibia 26.6582 0 0
rfoot -22.7421 -11.3745 0
rtoes -18.3524 0 0
lowerback -8.34031 -4.93323 -7.29948
upperback -1.05786 -5.97281 1.73858
thorax 4.49626 -3.10759 5.14355
lowerneck -18.3608 -4.96627 -13.0845
upperneck 21.2972 -6.3858 12.9676
head 10.7466 -2.52508 5.97329
lclavicle 2.36598e-15 5.40644e-15 0
lhumerus -16.3032 -39.3261 94.2055
lradius 41.0247 0 0
lwrist 13.2233 0 0
lhand -7.27872 -22.8012 0
lfingers 7.12502 0 0
lthumb 18.6024 6.32506 0
rclavicle 2.36598e-15 5.40644e-15 0
rhumerus -50.1418 4.82167 -82.4928
rradius 31.3201 0 0
rwrist -17.3246 0 0
rhand -28.1674 -23.2442 0
rfingers 7.12502 0 0
rthumb -1.54753 -53.2178 0
316
root 9.89216 16.5166 7.69573 7.87685 8.62195 5.24268
lfemur 18.708 3.80056 -26.1733
ltibia -2.22639e-14 0 0
lfoot -12.733 -1.90488 0
ltoes -3.42678 0 0
rfemur -42.9527 5.74683 8.14662
rtibia 26.8046 0 0
rfoot -22.4929 -11.15 0
rtoes -18.1883 0 0
lowerback -8.35149 -4.95431 -7.27541
upperback -1.09267 -6.00262 1.75886
thorax 4.46951 -3.12099 5.14807
lowerneck -18.3012 -4.98713 -13.1104
upperneck 21.2524 -6.42158 13.0102
head 10.726 -2.54016 5.98642
lclavicle 1.66482e-15 4.77083e-15 0
lhumerus -16.7546 -39.3885 94.5868
lradius 41.0885 0 0
lwrist 13.0588 0 0
lhand -7.13132 -22.8809 0
lfingers 7.12502 0 0
lthumb 18.7445 6.236 0
rclavicle 1.66482e-15 4.77083e-15 0
rhumerus -50.1361 4.74076 -82.4393
rradius 31.0575 0 0
rwrist -17.0811 0 0
rhand -28.065 -23.1231 0
rfingers 7.12502 0 0
rthumb -1.44868 -53.098 0
317
root 9.87609 16.5087 7.8694 7.86044 8.80561 5.13926
lfemur 19.0099 3.88481 -25.7217
ltibia 0.475323 0 0
lfoot -12.0112 -2.06536 0
ltoes -3.67124 0 0
rfemur -42.9053 5.6808 8.40623
rtibia 27.0567 0 0
rfoot -22.1722 -10.8459 0
rtoes -18.0214 0 0
lowerback -8.34949 -4.97517 -7.22081
upperback -1.12448 -6.03592 1.78913
thorax 4.43651 -3.13569 5.14683
lowerneck -18.2701 -5.00383 -13.1241
upperneck 21.2202 -6.45064 13.0438
head 10.7139 -2.55134 5.99561
lclavicle 1.10169e-15 4.00265e-15 0
lhumerus -17.2101 -39.3243 94.9683
lradius 41.0336 0 0
lwrist 12.8468 0 0
lhand -7.0521 -22.975 0
lfingers 7.12502 0 0
lthumb 18.8209 6.13753 0
rclavicle 1.10169e-15 4.00265e-15 0
rhumerus -50.1141 4.66656 -82.3816
rradius 30.818 0 0
rwrist -16.8347 0 0
rhand -27.9743 -23.0659 0
rfingers 7.12502 0 0
rthumb -1.36107 -53.0419 0
318
root 9.85821 16.5015 8.04741 7.82556 8.98667 4.99967
lfemur 19.2779 3.99311 -25.1882
ltibia 1.11292 0 0
lfoot -11.1402 -2.2407 0
ltoes -3.96314 0 0
rfemur -42.8366 5.56663 8.7629
rtibia 27.455 0 0
rfoot -21.7643 -10.4584 0
rtoes -17.8449 0 0
lowerback -8.3346 -4.99674 -7.13586
upperback -1.15524 -6.07391 1.83009
thorax 4.39561 -3.15221 5.14053
lowerneck -18.2642 -5.01593 -13.1263
upperneck 21.1972 -6.47266 13.0701
head 10.7083 -2.55842 6.00149
lclavicle 6.06319e-16 3.03923e-15 0
lhumerus -17.6896 -39.1317 95.3678
lradius 40.8642 0 0
lwrist 12.5662 0 0
lhand -7.02668 -23.0929 0
lfingers 7.12502 0 0
lthumb 18.8455 6.01936 0
rclavicle 6.06319e-16 3.03923e-15 0
rhumerus -50.0798 4.58792 -82.3142
rradius 30.5837 0 0
rwrist -16.5682 0 0
rhand -27.8874 -23.0574 0
rfingers 7.12502 0 0
rthumb -1.27718 -53.0343 0
319
root 9.83871 16.4949 8.22925 7.77399 9.1644 4.82724
lfemur 19.5092 4.12303 -24.582
ltibia 1.90148 0 0
lfoot -10.138 -2.42706 0
ltoes -4.29653 0 0
rfemur -42.7465 5.40948 9.20763
rtibia 27.9839 0 0
rfoot -21.2786 -9.99625 0
rtoes -17.6601 0 0
lowerback -8.30785 -5.01845 -7.02318
upperback -1.18491 -6.11552 1.88062
thorax 4.3475 -3.17006 5.12945
lowerneck -18.2811 -5.02395 -13.118
upperneck 21.1826 -6.48842 13.0897
head 10.7087 -2.56184 6.00438
lclavicle 1.77609e-16 1.90439e-15 0
lhumerus -18.1909 -38.8221 95.7821
lradius 40.5907 0 0
lwrist 12.2248 0 0
lhand -7.05071 -23.2315 0
lfingers 7.12502 0 0
lthumb 18.8224 5.88434 0
rclavicle 1.77609e-16 1.90439e-15 0
rhumerus -50.0333 4.50678 -82.2386
rradius 30.3563 0 0
rwrist -16.2855 0 0
rhand -27.8047 -23.0933 0
rfingers 7.12502 0 0
rthumb -1.19731 -53.0711 0
